HIERARCHY
ROOT Hips
{
	OFFSET 0.000000 0.000000 0.000000
	CHANNELS 6 Xposition Yposition Zposition Xrotation Yrotation Zrotation
	JOINT LeftUpLeg_virtual
	{
		OFFSET 0.000000 0.000000 0.000000
		CHANNELS 3 Xrotation Yrotation Zrotation
		JOINT LeftUpLeg
		{
			OFFSET 13.026900 -6.336304 -1.092800
			CHANNELS 3 Xrotation Yrotation Zrotation
			JOINT LeftLeg
			{
				OFFSET 0.524474 -46.096886 9.782700
				CHANNELS 3 Xrotation Yrotation Zrotation
				JOINT LeftFoot
				{
					OFFSET -0.524474 -53.427422 -12.948200
					CHANNELS 3 Xrotation Yrotation Zrotation
					JOINT LeftToeBase
					{
						OFFSET 0.192200 -14.009700 16.364100
						CHANNELS 3 Xrotation Yrotation Zrotation
						JOINT LeftToe_End
						{
							OFFSET -1.784700 -0.561700 9.474800
							CHANNELS 3 Xrotation Yrotation Zrotation
							End Site
							{
								OFFSET 0 0 0
							}
						}
					}
				}
			}
		}
	}
	JOINT RightUpLeg_virtual
	{
		OFFSET 0.000000 0.000000 0.000000
		CHANNELS 3 Xrotation Yrotation Zrotation
		JOINT RightUpLeg
		{
			OFFSET -12.883000 -6.336304 -1.092800
			CHANNELS 3 Xrotation Yrotation Zrotation
			JOINT RightLeg
			{
				OFFSET -0.524587 -46.096825 9.782800
				CHANNELS 3 Xrotation Yrotation Zrotation
				JOINT RightFoot
				{
					OFFSET 0.524587 -53.427383 -12.948300
					CHANNELS 3 Xrotation Yrotation Zrotation
					JOINT RightToeBase
					{
						OFFSET -0.192200 -14.009700 16.364100
						CHANNELS 3 Xrotation Yrotation Zrotation
						JOINT RightToe_End
						{
							OFFSET 1.784700 -0.561700 9.474800
							CHANNELS 3 Xrotation Yrotation Zrotation
							End Site
							{
								OFFSET 0 0 0
							}
						}
					}
				}
			}
		}
	}
	JOINT Spine_virtual
	{
		OFFSET 0.000000 0.000000 0.000000
		CHANNELS 3 Xrotation Yrotation Zrotation
		JOINT Spine
		{
			OFFSET 0.072000 7.257294 -0.789700
			CHANNELS 3 Xrotation Yrotation Zrotation
			JOINT Spine1
			{
				OFFSET 0.000000 12.508769 -0.658067
				CHANNELS 3 Xrotation Yrotation Zrotation
				JOINT Spine1_split
				{
					OFFSET 0.000000 12.508769 -0.658067
					CHANNELS 3 Xrotation Yrotation Zrotation
					JOINT Spine2
					{
						OFFSET 0.000000 12.508769 -0.658067
						CHANNELS 3 Xrotation Yrotation Zrotation
						JOINT Neck_virtual
						{
							OFFSET 0.000000 0.000000 0.000000
							CHANNELS 3 Xrotation Yrotation Zrotation
							JOINT Neck
							{
								OFFSET 0.000000 14.033295 7.520400
								CHANNELS 3 Xrotation Yrotation Zrotation
								JOINT Head
								{
									OFFSET 0.000000 8.198502 5.703100
									CHANNELS 3 Xrotation Yrotation Zrotation
									JOINT HeadTop_End
									{
										OFFSET 0.000000 17.760803 13.332701
										CHANNELS 3 Xrotation Yrotation Zrotation
										End Site
										{
											OFFSET 0 0 0
										}
									}
								}
							}
						}
						JOINT LeftShoulder_virtual
						{
							OFFSET 0.000000 0.000000 0.000000
							CHANNELS 3 Xrotation Yrotation Zrotation
							JOINT LeftShoulder
							{
								OFFSET 6.292450 5.785301 -0.669000
								CHANNELS 3 Xrotation Yrotation Zrotation
								JOINT LeftShoulder_split
								{
									OFFSET 6.292450 5.785301 -0.669000
									CHANNELS 3 Xrotation Yrotation Zrotation
									JOINT LeftArm
									{
										OFFSET 13.907140 -6.093903 1.965100
										CHANNELS 3 Xrotation Yrotation Zrotation
										JOINT LeftForeArm
										{
											OFFSET 34.140198 0.000000 0.000000
											CHANNELS 3 Xrotation Yrotation Zrotation
											JOINT LeftHand
											{
												OFFSET 40.960209 0.000000 0.000000
												CHANNELS 3 Xrotation Yrotation Zrotation
												End Site
												{
													OFFSET 0 0 0
												}
											}
										}
									}
								}
							}
						}
						JOINT RightShoulder_virtual
						{
							OFFSET 0.000000 0.000000 0.000000
							CHANNELS 3 Xrotation Yrotation Zrotation
							JOINT RightShoulder
							{
								OFFSET -6.292450 5.785301 -0.669000
								CHANNELS 3 Xrotation Yrotation Zrotation
								JOINT RightShoulder_split
								{
									OFFSET -6.292450 5.785301 -0.669000
									CHANNELS 3 Xrotation Yrotation Zrotation
									JOINT RightArm
									{
										OFFSET -13.907140 -6.093903 1.965100
										CHANNELS 3 Xrotation Yrotation Zrotation
										JOINT RightForeArm
										{
											OFFSET -34.140198 0.000000 0.000000
											CHANNELS 3 Xrotation Yrotation Zrotation
											JOINT RightHand
											{
												OFFSET -40.960209 0.000000 0.000000
												CHANNELS 3 Xrotation Yrotation Zrotation
												End Site
												{
													OFFSET 0 0 0
												}
											}
										}
									}
								}
							}
						}
					}
				}
			}
		}
	}
}
MOTION
Frames: 4
Frame Time: 0.03333333
19.889816 25.852005 -35.550079 0.000000 0.000000 0.000000 83.793977 1.533008 -0.005103 -6.208386 -3.010712 28.801128 38.360029 0.114603 -13.001436 25.930458 57.216734 -25.580013 1.296157 -7.427914 -3.719651 0.000000 0.000000 0.000000 83.721775 -2.660624 -0.485262 -39.483787 -42.921749 -40.591568 37.129410 24.228872 -7.774381 37.016350 -49.455648 32.897456 21.167871 7.761717 4.782003 0.000000 0.000000 0.000000 91.339444 0.467503 -1.431725 17.212917 -0.148835 -1.597195 -10.055802 -2.516461 0.203176 -0.035012 0.477023 0.056515 0.000000 0.000000 0.000000 -5.941464 -0.901245 1.203953 -5.449005 0.389783 10.801732 -26.516780 -21.715705 2.427946 0.000000 0.000000 0.000000 -11.269068 -0.862165 -0.455000 -1.448766 -9.675542 4.981853 3.065453 1.381569 -5.204928 24.247834 -32.309998 -59.321819 -11.793604 -33.759559 -7.352038 0.000000 0.000000 0.000000 -7.821559 -1.849590 0.177281 7.034269 1.777875 3.317316 -22.681559 2.060344 4.169191 13.725216 15.257499 53.350611 -24.636424 17.786038 20.969441 0.000000 0.000000 0.000000 
19.889473 25.852348 -35.553238 0.000000 0.000000 0.000000 83.790712 1.534326 0.003573 -6.204703 -3.017830 28.798113 38.362338 0.118815 -13.003278 25.945136 57.217502 -25.588508 1.302284 -7.426752 -3.722546 0.000000 0.000000 0.000000 83.709822 -2.658331 -0.483394 -39.478036 -42.923446 -40.593932 37.141476 24.226391 -7.775878 37.015592 -49.452731 32.901510 21.177529 7.763189 4.780545 0.000000 0.000000 0.000000 91.333228 0.475891 -1.430277 17.215152 -0.147304 -1.598706 -10.055490 -2.513288 0.201781 -0.034317 0.476226 0.056703 0.000000 0.000000 0.000000 -5.940941 -0.899212 1.202511 -5.449658 0.391760 10.807523 -26.508114 -21.709374 2.428231 0.000000 0.000000 0.000000 -11.266835 -0.859765 -0.458087 -1.446320 -9.689492 4.986347 3.059806 1.391959 -5.173572 24.250315 -32.303626 -59.321217 -11.797954 -33.738365 -7.351102 0.000000 0.000000 0.000000 -7.820928 -1.847172 0.177210 7.028658 1.768949 3.315299 -22.683502 2.047929 4.164598 13.699201 15.210941 53.389799 -24.648225 17.766466 20.981259 0.000000 0.000000 0.000000 
19.889744 25.855843 -35.558937 0.000000 0.000000 0.000000 83.782638 1.536696 0.010023 -6.201408 -3.023393 28.793291 38.365067 0.129410 -13.001948 25.961761 57.220145 -25.592710 1.305429 -7.424877 -3.727220 0.000000 0.000000 0.000000 83.698928 -2.658249 -0.481512 -39.456698 -42.937551 -40.589478 37.143832 24.212809 -7.773576 37.001580 -49.459678 32.897541 21.191471 7.766660 4.777170 0.000000 0.000000 0.000000 91.323707 0.485639 -1.430125 17.220649 -0.143326 -1.600666 -10.055808 -2.509172 0.200595 -0.034018 0.476146 0.056959 0.000000 0.000000 0.000000 -5.940919 -0.895849 1.200835 -5.459550 0.390759 10.821631 -26.503350 -21.696414 2.421211 0.000000 0.000000 0.000000 -11.266138 -0.856138 -0.460481 -1.442901 -9.718368 4.994706 3.061137 1.394926 -5.151923 24.241274 -32.304404 -59.321142 -11.798344 -33.677703 -7.346314 0.000000 0.000000 0.000000 -7.820984 -1.844099 0.177577 7.013637 1.741238 3.315777 -22.691488 2.032652 4.169256 13.661071 15.145338 53.422396 -24.665814 17.716216 21.007780 0.000000 0.000000 0.000000 
19.889612 25.861351 -35.567284 0.000000 0.000000 0.000000 83.770959 1.541674 0.013481 -6.203559 -3.029063 28.788305 38.370138 0.140644 -12.997179 25.979208 57.220719 -25.597512 1.310734 -7.422502 -3.733187 0.000000 0.000000 0.000000 83.686947 -2.658751 -0.477887 -39.429647 -42.958646 -40.585121 37.139884 24.193268 -7.769469 36.984248 -49.467645 32.896425 21.207526 7.771695 4.772367 0.000000 0.000000 0.000000 91.311494 0.494385 -1.430420 17.230166 -0.137907 -1.602651 -10.055609 -2.504114 0.199488 -0.034878 0.476489 0.057471 0.000000 0.000000 0.000000 -5.941214 -0.891165 1.198682 -5.478251 0.387939 10.841796 -26.514980 -21.677325 2.403705 0.000000 0.000000 0.000000 -11.265726 -0.851484 -0.462132 -1.438882 -9.758457 5.007696 3.063046 1.391539 -5.151902 24.220647 -32.313523 -59.319462 -11.795090 -33.581554 -7.337747 0.000000 0.000000 0.000000 -7.820597 -1.840144 0.178198 6.990571 1.699209 3.313763 -22.701903 2.026713 4.191403 13.614957 15.073509 53.435247 -24.689015 17.654553 21.047919 0.000000 0.000000 0.000000 
